<?xml version="1.0" encoding="UTF-8" standalone="no"?>
<svg width="429px" height="231px" viewBox="0 0 429 231" version="1.1" xmlns="http://www.w3.org/2000/svg" xmlns:xlink="http://www.w3.org/1999/xlink">
    <!-- Generator: Sketch 42 (36781) - http://www.bohemiancoding.com/sketch -->
    <title>product-reviews-landing-illustration</title>
    <desc>Created with Sketch.</desc>
    <defs></defs>
    <g id="Product-pages" stroke="none" stroke-width="1" fill="none" fill-rule="evenodd">
        <g id="landing-page" transform="translate(-826.000000, -174.000000)">
            <rect id="Rectangle" fill="#F3F3F3" x="0" y="0" width="1440" height="2882.5"></rect>
            <path d="M0,0 L1440,0 L1440,430 L981.41205,430 L451.270083,430 L0,430 L0,0 Z" id="Mask" fill="#FFFFFF"></path>
            <g id="product-reviews-landing-illustration" transform="translate(828.000000, 175.000000)">
                <g id="question-person" transform="translate(15.950773, 15.885324)">
                    <path d="M121.321045,84.6133915 C121.321045,118.228665 94.1978434,145.479729 60.7402926,145.479729 C27.2827418,145.479729 0.159540519,118.228665 0.159540519,84.6133915 C0.159540519,50.9981174 27.2827418,23.7470539 60.7402926,23.7470539 C94.1978434,23.7470539 121.321045,50.9981174 121.321045,84.6133915" id="Fill-3"></path>
                    <path d="M121.321045,84.6133915 C121.321045,118.228665 94.1978434,145.479729 60.7402926,145.479729 C27.2827418,145.479729 0.159540519,118.228665 0.159540519,84.6133915 C0.159540519,50.9981174 27.2827418,23.7470539 60.7402926,23.7470539 C94.1978434,23.7470539 121.321045,50.9981174 121.321045,84.6133915 Z" id="Stroke-5" stroke="#666666" stroke-width="3" stroke-linejoin="round" fill="#F3F3F3"></path>
                    <path d="M73.0991022,96.3668638 C81.3558164,91.6108567 86.9311995,82.6872415 86.9311995,72.4390685 C86.9311995,57.2053335 74.6393576,44.8555462 59.4770994,44.8555462 C44.3135281,44.8555462 32.0216861,57.2053335 32.0216861,72.4390685 C32.0216861,83.018381 37.956856,92.195298 46.6560819,96.823335 C32.0413825,101.182239 20.5255771,112.13095 15.9166288,125.991314 C27.0004273,138.257986 42.9964981,145.961267 60.7836246,145.961267 C78.5668118,145.961267 94.5589433,138.261944 105.641429,126.003187 C100.842082,111.590045 88.5607451,100.340538 73.0991022,96.3668638" id="Fill-7" fill="#FFFFFF"></path>
                    <path d="M73.0991022,96.3668638 C81.3558164,91.6108567 86.9311995,82.6872415 86.9311995,72.4390685 C86.9311995,57.2053335 74.6393576,44.8555462 59.4770994,44.8555462 C44.3135281,44.8555462 32.0216861,57.2053335 32.0216861,72.4390685 C32.0216861,83.018381 37.956856,92.195298 46.6560819,96.823335 C32.0413825,101.182239 20.5255771,112.13095 15.9166288,125.991314 C27.0004273,138.257986 42.9964981,145.961267 60.7836246,145.961267 C78.5668118,145.961267 94.5589433,138.261944 105.641429,126.003187 C100.842082,111.590045 88.5607451,100.340538 73.0991022,96.3668638 Z" id="Stroke-9" stroke="#666666" stroke-width="3" stroke-linejoin="round"></path>
                    <path d="M70.8432124,77.8375654 C68.5256073,81.5236359 66.3984004,85.9273951 59.7725448,85.9273951 C53.1466891,85.9273951 51.0680666,81.5539793 48.7438961,77.906168" id="Stroke-11" stroke="#666666" stroke-width="3" stroke-linecap="round" stroke-linejoin="round"></path>
                    <path d="M46.1177147,65.9468878 C46.1177147,63.7700746 47.8733169,62.0061962 50.0399166,62.0061962 C52.2065162,62.0061962 53.9621185,63.7700746 53.9621185,65.9468878" id="Stroke-13" stroke="#666666" stroke-width="3" stroke-linecap="round" stroke-linejoin="round"></path>
                    <path d="M67.1271657,65.9468878 C67.1271657,63.7700746 68.882768,62.0061962 71.0493676,62.0061962 C73.2159673,62.0061962 74.9715695,63.7700746 74.9715695,65.9468878" id="Stroke-15" stroke="#666666" stroke-width="3" stroke-linecap="round" stroke-linejoin="round"></path>
                    <path d="M85.5104354,122.693112 L85.5104354,138.143209" id="Stroke-17" stroke="#666666" stroke-width="3" stroke-linecap="round" stroke-linejoin="round"></path>
                    <path d="M35.6129892,122.693112 L35.6129892,138.143209" id="Stroke-19" stroke="#666666" stroke-width="3" stroke-linecap="round" stroke-linejoin="round"></path>
                    <path d="M160.037524,0 L99.954433,0 L99.954433,58.965254 L113.433309,58.965254 C113.794409,62.212004 114.440449,76.1343739 99.954433,81.8072813 C99.954433,81.8072813 135.933118,79.8217637 136.726225,58.965254 L160.037524,58.965254 L160.037524,0 Z" id="Fill-21" fill="#FFFFFF"></path>
                    <path d="M160.037524,0 L99.954433,0 L99.954433,58.965254 L113.433309,58.965254 C113.794409,62.212004 114.440449,76.1343739 99.954433,81.8072813 C99.954433,81.8072813 135.933118,79.8217637 136.726225,58.965254 L160.037524,58.965254 L160.037524,0 Z" id="Stroke-23" stroke="#666666" stroke-width="3" stroke-linejoin="round"></path>
                    <path d="M123.590293,22.9937445 C123.590293,22.9937445 123.441914,15.8313692 130.719063,15.8313692 C137.846519,15.8313692 137.846519,22.9937445 137.846519,22.9937445 C137.846519,22.9937445 138.069744,26.6494715 133.094444,30.1561198 C129.903633,32.6917775 130.720376,37.3171759 130.720376,37.3171759" id="Stroke-25" stroke="#FF5200" stroke-width="3" stroke-linecap="round" stroke-linejoin="round"></path>
                    <path d="M132.281413,44.6048828 C132.281413,45.9228443 131.217809,46.992781 129.904719,46.992781 C128.592941,46.992781 127.529337,45.9228443 127.529337,44.6048828 C127.529337,43.2869213 128.592941,42.2169846 129.904719,42.2169846 C131.217809,42.2169846 132.281413,43.2869213 132.281413,44.6048828" id="Fill-27" fill="#FF5200"></path>
                </g>
                <g id="review-person" transform="translate(194.563250, 78.367598)">
                    <g id="dude" transform="translate(99.346585, 18.003367)">
                        <path d="M130.910244,65.1986657 C130.910244,101.093433 101.615663,130.190272 65.4800486,130.190272 C29.3430492,130.190272 0.0484684462,101.093433 0.0484684462,65.1986657 C0.0484684462,29.3052742 29.3430492,0.207059838 65.4800486,0.207059838 C101.615663,0.207059838 130.910244,29.3052742 130.910244,65.1986657" id="Fill-65" fill="#F2F2F2"></path>
                        <path d="M130.910244,65.1986657 C130.910244,101.093433 101.615663,130.190272 65.4800486,130.190272 C29.3430492,130.190272 0.0484684462,101.093433 0.0484684462,65.1986657 C0.0484684462,29.3052742 29.3430492,0.207059838 65.4800486,0.207059838 C101.615663,0.207059838 130.910244,29.3052742 130.910244,65.1986657 Z" id="Stroke-67" stroke="#666666" stroke-width="3" stroke-linejoin="round"></path>
                        <path d="M76.2138246,66.1601695 C83.3387474,62.1023208 88.1496283,54.4900717 88.1496283,45.7471271 C88.1496283,32.7510067 77.5432562,22.215731 64.4594329,22.215731 C51.3756095,22.215731 40.7692375,32.7510067 40.7692375,45.7471271 C40.7692375,54.7720578 45.8889342,62.6016425 53.3960687,66.5494479 C36.9249642,71.4064865 24.9753123,85.8400482 24.9753123,102.895393 L24.9753123,115.734701 C36.1342293,124.52579 50.2386685,129.788613 65.5866801,129.788613 C80.9360766,129.788613 95.0391309,124.52579 106.199433,115.734701 L106.199433,102.895393 C106.199433,85.309089 93.4798184,70.5481483 76.2138246,66.1601695" id="Fill-69" fill="#FFFFFF"></path>
                        <path d="M76.2138246,66.1601695 C83.3387474,62.1023208 88.1496283,54.4900717 88.1496283,45.7471271 C88.1496283,32.7510067 77.5432562,22.215731 64.4594329,22.215731 C51.3756095,22.215731 40.7692375,32.7510067 40.7692375,45.7471271 C40.7692375,54.7720578 45.8889342,62.6016425 53.3960687,66.5494479 C36.9249642,71.4064865 24.9753123,85.8400482 24.9753123,102.895393 L24.9753123,115.734701 C36.1342293,124.52579 50.2386685,129.788613 65.5866801,129.788613 C80.9360766,129.788613 95.0391309,124.52579 106.199433,115.734701 L106.199433,102.895393 C106.199433,85.309089 93.4798184,70.5481483 76.2138246,66.1601695 Z" id="Stroke-71" stroke="#666666" stroke-width="3" stroke-linejoin="round"></path>
                        <path d="M76.0573394,51.1021119 C73.4594083,55.1874714 71.0761251,60.0665187 63.6479256,60.0665187 C56.221111,60.0665187 53.8918359,55.2204844 51.2869807,51.1791422 L63.6714676,51.140627 L76.0573394,51.1021119 Z" id="Fill-73" fill="#FFFFFF"></path>
                        <path d="M76.0573394,51.1021119 C73.4594083,55.1874714 71.0761251,60.0665187 63.6479256,60.0665187 C56.221111,60.0665187 53.8918359,55.2204844 51.2869807,51.1791422 L63.6714676,51.140627 L76.0573394,51.1021119 Z" id="Stroke-75" stroke="#666666" stroke-width="3" stroke-linejoin="round"></path>
                        <path d="M51.2869807,40.7085169 C51.2869807,38.8515353 52.8019789,37.3466924 54.6714922,37.3466924 C56.5410055,37.3466924 58.0560037,38.8515353 58.0560037,40.7085169" id="Stroke-77" stroke="#666666" stroke-width="3" stroke-linecap="round" stroke-linejoin="round"></path>
                        <path d="M69.2897013,40.7085169 C69.2897013,38.8515353 70.8046994,37.3466924 72.6742127,37.3466924 C74.543726,37.3466924 76.0587242,38.8515353 76.0587242,40.7085169" id="Stroke-79" stroke="#666666" stroke-width="3" stroke-linecap="round" stroke-linejoin="round"></path>
                        <path d="M85.6444805,86.7121418 L85.6444805,92.4949201 C85.6444805,94.2528627 84.2111869,95.6765486 82.441381,95.6765486 L72.1064346,95.6765486 L72.1064346,83.3503172 C72.1064346,81.4933356 70.5914364,79.9884927 68.723308,79.9884927 C66.8537947,79.9884927 65.3387965,81.4933356 65.3387965,83.3503172 L65.3387965,95.6765486 L59.8895115,95.6765486 C56.6684094,95.6765486 54.05663,98.2694452 54.05663,101.468956 L54.05663,110.053713 C54.05663,113.253224 56.6684094,115.84612 59.8895115,115.84612 L92.4135034,115.84612 C99.8901717,115.84612 105.950164,109.826749 105.950164,102.400198 L105.950164,100.15944" id="Stroke-81" stroke="#666666" stroke-width="3" stroke-linecap="round" stroke-linejoin="round"></path>
                    </g>
                    <g id="bubble">
                        <path d="M0,0.476369517 L116.217418,0.476369517 L116.217418,61.7728121 L103.759093,61.7728121 C103.425334,64.7659685 102.828208,77.6009053 116.217418,82.8307194 C116.217418,82.8307194 82.962854,81.0002845 82.2297972,61.7728121 L0,61.7728121 L0,0.476369517 Z" id="Fill-103" fill="#FFFFFF"></path>
                        <path d="M0,0 L116.217418,0 L116.217418,61.7728121 L103.759093,61.7728121 C103.425334,64.7659685 102.828208,77.6009053 116.217418,82.8307194 C116.217418,82.8307194 82.962854,81.0002845 82.2297972,61.7728121 L0,61.7728121 L0,0 Z" id="Stroke-105" stroke="#666666" stroke-width="3" stroke-linejoin="round"></path>
                        <path d="M62.1985401,25.0871078 L68.9659651,26.0418529 C69.8531581,26.165909 70.2111908,27.2556563 69.5728002,27.8844502 L64.701128,32.6873656 C64.447471,32.9366939 64.3321723,33.2966997 64.3940695,33.6469756 L65.5798253,40.3922196 C65.7351751,41.2752068 64.8127857,41.9538664 64.0178317,41.5403463 L57.9543354,38.3805655 C57.6387811,38.2163737 57.263757,38.2175899 56.9494165,38.3854305 L50.9150482,41.5999418 C50.1237353,42.0207594 49.1952775,41.3506135 49.3421316,40.4651938 L50.4672039,33.7102199 C50.5254601,33.3587278 50.4077341,33.0011544 50.1516497,32.7530423 L45.2362853,27.9951277 C44.5930401,27.3724149 44.9413635,26.2790189 45.8273427,26.1464492 L52.5850584,25.1308923 C52.9370228,25.0773779 53.2404403,24.8548067 53.3957901,24.5349367 L56.3923418,18.3795671 C56.785571,17.5732028 57.930062,17.5683378 58.3305732,18.3710535 L61.3829537,24.4984496 C61.5407308,24.8171034 61.8465757,25.0372421 62.1985401,25.0871078" id="Fill-107" fill="#FF5200"></path>
                        <path d="M94.9676355,25.0871078 L101.735061,26.0418529 C102.622254,26.165909 102.980286,27.2556563 102.341896,27.8844502 L97.4702235,32.6873656 C97.2165664,32.9366939 97.1012678,33.2966997 97.1631649,33.6469756 L98.3489207,40.3922196 C98.5042705,41.2752068 97.5818812,41.9538664 96.7869272,41.5403463 L90.7234308,38.3805655 C90.4078766,38.2163737 90.0328525,38.2175899 89.7185119,38.3854305 L83.6841437,41.5999418 C82.8928307,42.0207594 81.964373,41.3506135 82.1112271,40.4651938 L83.2362994,33.7102199 C83.2945555,33.3587278 83.1768295,33.0011544 82.9207451,32.7530423 L78.0053808,27.9951277 C77.3621356,27.3724149 77.7104589,26.2790189 78.5964382,26.1464492 L85.3541539,25.1308923 C85.7061182,25.0773779 86.0095358,24.8548067 86.1648856,24.5349367 L89.1614373,18.3795671 C89.5546664,17.5732028 90.6991574,17.5683378 91.0996686,18.3710535 L94.1520492,24.4984496 C94.3098263,24.8171034 94.6156712,25.0372421 94.9676355,25.0871078" id="Fill-109" fill="#FF5200"></path>
                        <path d="M29.4294446,25.0871078 L36.1968697,26.0418529 C37.0840626,26.165909 37.4420953,27.2556563 36.8037048,27.8844502 L31.9320326,32.6873656 C31.6783755,32.9366939 31.5630769,33.2966997 31.624974,33.6469756 L32.8107298,40.3922196 C32.9660796,41.2752068 32.0436903,41.9538664 31.2487363,41.5403463 L25.1852399,38.3805655 C24.8696857,38.2163737 24.4946616,38.2175899 24.180321,38.3854305 L18.1459528,41.5999418 C17.3546398,42.0207594 16.4261821,41.3506135 16.5730362,40.4651938 L17.6981085,33.7102199 C17.7563646,33.3587278 17.6386386,33.0011544 17.3825542,32.7530423 L12.4671899,27.9951277 C11.8239447,27.3724149 12.172268,26.2790189 13.0582473,26.1464492 L19.815963,25.1308923 C20.1679273,25.0773779 20.4713449,24.8548067 20.6266947,24.5349367 L23.6232464,18.3795671 C24.0164755,17.5732028 25.1609665,17.5683378 25.5614777,18.3710535 L28.6138583,24.4984496 C28.7716354,24.8171034 29.0774803,25.0372421 29.4294446,25.0871078" id="Fill-111" fill="#FF5200"></path>
                    </g>
                </g>
                <g id="sparkles">
                    <path d="M30.8675497,188.842356 C30.8675497,190.305365 29.6852548,191.490176 28.2253533,191.490176 C26.7654517,191.490176 25.5831569,190.305365 25.5831569,188.842356 C25.5831569,187.379347 26.7654517,186.194535 28.2253533,186.194535 C29.6852548,186.194535 30.8675497,187.379347 30.8675497,188.842356" id="Fill-1" fill="#CECECE"></path>
                    <path d="M21.4960781,224.939328 C21.4960781,226.402337 20.3137833,227.587149 18.8538817,227.587149 C17.3939801,227.587149 16.2116853,226.402337 16.2116853,224.939328 C16.2116853,223.476319 17.3939801,222.291508 18.8538817,222.291508 C20.3137833,222.291508 21.4960781,223.476319 21.4960781,224.939328" id="Fill-5" fill="#CECECE"></path>
                    <path d="M270.919418,52.3188092 C270.919418,53.7818183 269.737124,54.9666296 268.277222,54.9666296 C266.81732,54.9666296 265.635026,53.7818183 265.635026,52.3188092 C265.635026,50.8558002 266.81732,49.6709889 268.277222,49.6709889 C269.737124,49.6709889 270.919418,50.8558002 270.919418,52.3188092" id="Fill-5" fill="#CECECE"></path>
                    <path d="M256.642567,170.838989 C256.642567,172.301998 255.460272,173.486809 254.000371,173.486809 C252.540469,173.486809 251.358174,172.301998 251.358174,170.838989 C251.358174,169.37598 252.540469,168.191168 254.000371,168.191168 C255.460272,168.191168 256.642567,169.37598 256.642567,170.838989" id="Fill-9" fill="#CECECE"></path>
                    <path d="M203.798639,57.5236787 C203.798639,58.9866877 202.616344,60.1714991 201.156443,60.1714991 C199.696541,60.1714991 198.514246,58.9866877 198.514246,57.5236787 C198.514246,56.0606696 199.696541,54.8758583 201.156443,54.8758583 C202.616344,54.8758583 203.798639,56.0606696 203.798639,57.5236787" id="Fill-9" fill="#CECECE"></path>
                    <path d="M174.83326,199.218767 C174.83326,200.681776 173.650965,201.866587 172.191063,201.866587 C170.731162,201.866587 169.548867,200.681776 169.548867,199.218767 C169.548867,197.755757 170.731162,196.570946 172.191063,196.570946 C173.650965,196.570946 174.83326,197.755757 174.83326,199.218767" id="Fill-13" fill="#CECECE"></path>
                    <path d="M300.601808,34.0113985 C300.601808,35.4744076 299.419514,36.6592189 297.959612,36.6592189 C296.49971,36.6592189 295.317416,35.4744076 295.317416,34.0113985 C295.317416,32.5483895 296.49971,31.3635781 297.959612,31.3635781 C299.419514,31.3635781 300.601808,32.5483895 300.601808,34.0113985" id="Fill-13" fill="#CECECE"></path>
                    <path d="M271.715385,227.160397 C271.715385,228.623406 270.53309,229.808218 269.073188,229.808218 C267.613287,229.808218 266.430992,228.623406 266.430992,227.160397 C266.430992,225.697388 267.613287,224.512577 269.073188,224.512577 C270.53309,224.512577 271.715385,225.697388 271.715385,227.160397" id="Fill-13" fill="#CECECE"></path>
                    <path d="M356.265669,73.6022669 C356.265669,75.0652759 355.083375,76.2500873 353.623473,76.2500873 C352.163571,76.2500873 350.981277,75.0652759 350.981277,73.6022669 C350.981277,72.1392579 352.163571,70.9544465 353.623473,70.9544465 C355.083375,70.9544465 356.265669,72.1392579 356.265669,73.6022669" id="Fill-13" fill="#CECECE"></path>
                    <path d="M112.240713,180.286337 C112.240713,181.749346 111.058419,182.934157 109.598517,182.934157 C108.138615,182.934157 106.956321,181.749346 106.956321,180.286337 C106.956321,178.823328 108.138615,177.638516 109.598517,177.638516 C111.058419,177.638516 112.240713,178.823328 112.240713,180.286337" id="Fill-17" fill="#CECECE"></path>
                    <path d="M203.604384,155.016317 C203.604384,156.479326 202.422089,157.664137 200.962187,157.664137 C199.502286,157.664137 198.319991,156.479326 198.319991,155.016317 C198.319991,153.553308 199.502286,152.368496 200.962187,152.368496 C202.422089,152.368496 203.604384,153.553308 203.604384,155.016317" id="Fill-21" fill="#CECECE"></path>
                    <path d="M130.312624,215.370611 C130.312624,216.83362 129.130329,218.018431 127.670427,218.018431 C126.210526,218.018431 125.028231,216.83362 125.028231,215.370611 C125.028231,213.907602 126.210526,212.72279 127.670427,212.72279 C129.130329,212.72279 130.312624,213.907602 130.312624,215.370611" id="Fill-25" fill="#CECECE"></path>
                    <path d="M76.1458975,185.98073 L76.1458975,215.42153" id="Stroke-33" stroke="#CECECE" stroke-width="3" stroke-linecap="round" stroke-linejoin="round"></path>
                    <path d="M90.8350313,200.70113 L61.4567637,200.70113" id="Stroke-35" stroke="#CECECE" stroke-width="3" stroke-linecap="round" stroke-linejoin="round"></path>
                    <path d="M159.234512,131.241016 L159.234512,160.681816" id="Stroke-37" stroke="#CECECE" stroke-width="3" stroke-linecap="round" stroke-linejoin="round"></path>
                    <path d="M173.923646,145.961416 L144.545378,145.961416" id="Stroke-39" stroke="#CECECE" stroke-width="3" stroke-linecap="round" stroke-linejoin="round"></path>
                    <path d="M329.39196,39.1061372 L329.39196,68.5469374" id="Stroke-37" stroke="#CECECE" stroke-width="3" stroke-linecap="round" stroke-linejoin="round"></path>
                    <path d="M344.081094,53.8265373 L314.702826,53.8265373" id="Stroke-39" stroke="#CECECE" stroke-width="3" stroke-linecap="round" stroke-linejoin="round"></path>
                    <path d="M276.266795,186.994543 L276.266795,208.794474" id="Stroke-41" stroke="#CECECE" stroke-width="3" stroke-linecap="round" stroke-linejoin="round"></path>
                    <path d="M287.143609,197.894508 L265.389981,197.894508" id="Stroke-43" stroke="#CECECE" stroke-width="3" stroke-linecap="round" stroke-linejoin="round"></path>
                    <path d="M260.413617,0.606743121 L260.413617,22.4066743" id="Stroke-41" stroke="#CECECE" stroke-width="3" stroke-linecap="round" stroke-linejoin="round"></path>
                    <path d="M271.290431,11.5067087 L249.536803,11.5067087" id="Stroke-43" stroke="#CECECE" stroke-width="3" stroke-linecap="round" stroke-linejoin="round"></path>
                    <path d="M217.759147,176.83874 L217.759147,198.638672" id="Stroke-45" stroke="#CECECE" stroke-width="3" stroke-linecap="round" stroke-linejoin="round"></path>
                    <path d="M228.635961,187.738706 L206.882333,187.738706" id="Stroke-47" stroke="#CECECE" stroke-width="3" stroke-linecap="round" stroke-linejoin="round"></path>
                    <path d="M10.8968056,148.541684 L10.8968056,170.341615" id="Stroke-49" stroke="#CECECE" stroke-width="3" stroke-linecap="round" stroke-linejoin="round"></path>
                    <path d="M21.7734238,159.441649 L0.0197958155,159.441649" id="Stroke-51" stroke="#CECECE" stroke-width="3" stroke-linecap="round" stroke-linejoin="round"></path>
                    <path d="M229.670668,30.9902872 L229.670668,52.7902183" id="Stroke-49" stroke="#CECECE" stroke-width="3" stroke-linecap="round" stroke-linejoin="round"></path>
                    <path d="M240.547286,41.8902527 L218.793658,41.8902527" id="Stroke-51" stroke="#CECECE" stroke-width="3" stroke-linecap="round" stroke-linejoin="round"></path>
                </g>
            </g>
            <text id="Get-trusted-reviews," font-family="OpenSans-Semibold, Open Sans" font-size="17" font-weight="500" line-spacing="28" fill="#333333">
                <tspan x="155" y="320">Get trusted reviews, specs, and answers on 1,000’s of tech products.</tspan>
            </text>
        </g>
    </g>
</svg>